<?xml version="1.0" encoding="UTF-8" standalone="no"?>
<svg
   xmlns:dc="http://purl.org/dc/elements/1.1/"
   xmlns:cc="http://creativecommons.org/ns#"
   xmlns:rdf="http://www.w3.org/1999/02/22-rdf-syntax-ns#"
   xmlns:svg="http://www.w3.org/2000/svg"
   xmlns="http://www.w3.org/2000/svg"
   xmlns:xlink="http://www.w3.org/1999/xlink"
   xmlns:sodipodi="http://sodipodi.sourceforge.net/DTD/sodipodi-0.dtd"
   xmlns:inkscape="http://www.inkscape.org/namespaces/inkscape"
   width="1920"
   height="1920"
   version="1.1"
   viewBox="0 0 508 508"
   id="svg1847"
   sodipodi:docname="KHAN logo3t.svg"
   enable-background="new"
   inkscape:version="0.92.4 (5da689c313, 2019-01-14)"
   inkscape:export-filename="D:\GOG Games\Settings\KHAN.mod\source\KHAN logo17.png"
   inkscape:export-xdpi="25"
   inkscape:export-ydpi="25">
  <metadata
     id="metadata1851">
    <rdf:RDF>
      <cc:Work
         rdf:about="">
        <dc:format>image/svg+xml</dc:format>
        <dc:type
           rdf:resource="http://purl.org/dc/dcmitype/StillImage" />
        <dc:title />
      </cc:Work>
    </rdf:RDF>
  </metadata>
  <sodipodi:namedview
     pagecolor="#ff88ff"
     bordercolor="#666666"
     borderopacity="1"
     objecttolerance="10"
     gridtolerance="10"
     guidetolerance="10"
     inkscape:pageopacity="0"
     inkscape:pageshadow="2"
     inkscape:window-width="1600"
     inkscape:window-height="837"
     id="namedview1849"
     showgrid="false"
     inkscape:zoom="0.30950534"
     inkscape:cx="1487.0988"
     inkscape:cy="913.41215"
     inkscape:window-x="-4"
     inkscape:window-y="-4"
     inkscape:window-maximized="1"
     inkscape:current-layer="svg1847"
     inkscape:snap-bbox="true"
     inkscape:bbox-nodes="true"
     inkscape:snap-bbox-midpoints="true" />
  <defs
     id="defs1745">
    <linearGradient
       inkscape:collect="always"
       id="linearGradient1059">
      <stop
         style="stop-color:#49736f;stop-opacity:0.20784314"
         offset="0"
         id="stop1053" />
      <stop
         id="stop1055"
         offset="0.5"
         style="stop-color:#66b8b8;stop-opacity:0.40000001" />
      <stop
         style="stop-color:#49736f;stop-opacity:0"
         offset="1"
         id="stop1057" />
    </linearGradient>
    <linearGradient
       id="linearGradient982"
       inkscape:collect="always">
      <stop
         id="stop978"
         offset="0"
         style="stop-color:#49736f;stop-opacity:0.20784314" />
      <stop
         style="stop-color:#66b8b8;stop-opacity:0.40000001"
         offset="0.5"
         id="stop984" />
      <stop
         id="stop980"
         offset="1"
         style="stop-color:#49736f;stop-opacity:0.20784314" />
    </linearGradient>
    <linearGradient
       inkscape:collect="always"
       id="linearGradient942">
      <stop
         style="stop-color:#000000;stop-opacity:0.50196081"
         offset="0"
         id="stop938" />
      <stop
         style="stop-color:#000000;stop-opacity:0;"
         offset="1"
         id="stop940" />
    </linearGradient>
    <linearGradient
       id="linearGradient1006"
       inkscape:collect="always">
      <stop
         id="stop1002"
         offset="0"
         style="stop-color:#ffffff;stop-opacity:0.933" />
      <stop
         id="stop1004"
         offset="1"
         style="stop-color:#e1b200;stop-opacity:0.8" />
    </linearGradient>
    <linearGradient
       id="linearGradient1013"
       inkscape:collect="always">
      <stop
         id="stop1009"
         offset="0"
         style="stop-color:#ffa311;stop-opacity:1" />
      <stop
         style="stop-color:#ffdb11;stop-opacity:0.8"
         offset="0.5"
         id="stop1008" />
      <stop
         id="stop1011"
         offset="1"
         style="stop-color:#e18a00;stop-opacity:0.33333334" />
    </linearGradient>
    <filter
       id="g"
       color-interpolation-filters="sRGB">
      <feOffset
         dx="3"
         dy="3"
         id="feOffset1703" />
      <feGaussianBlur
         result="blur"
         stdDeviation="3"
         id="feGaussianBlur1705" />
      <feFlood
         flood-color="rgb(0,0,0)"
         result="flood"
         id="feFlood1707" />
      <feComposite
         in="flood"
         in2="SourceGraphic"
         operator="in"
         result="composite"
         id="feComposite1709" />
      <feBlend
         in="blur"
         in2="composite"
         id="feBlend1711" />
    </filter>
    <filter
       id="e"
       x="-.006"
       y="-.006"
       width="1.012"
       height="1.012"
       color-interpolation-filters="sRGB">
      <feGaussianBlur
         stdDeviation="0.16120536"
         id="feGaussianBlur1714" />
    </filter>
    <filter
       id="h"
       y="-.08225"
       width="3"
       height="1.164"
       color-interpolation-filters="sRGB">
      <feGaussianBlur
         stdDeviation="0.1"
         id="feGaussianBlur1717" />
    </filter>
    <linearGradient
       id="a"
       x1="-104"
       x2="-96.46"
       y1="140.9"
       y2="133.4"
       gradientTransform="matrix(-.7043 0 0 .7043 34.16 47.13)"
       gradientUnits="userSpaceOnUse">
      <stop
         stop-color="#fff"
         offset="0"
         id="stop1720" />
      <stop
         stop-color="#fff"
         stop-opacity="0"
         offset=".5"
         id="stop1722" />
      <stop
         stop-color="#fff"
         offset="1"
         id="stop1724" />
    </linearGradient>
    <filter
       id="f"
       x="-.01364"
       y="-.01071"
       width="1.027"
       height="1.021"
       color-interpolation-filters="sRGB">
      <feGaussianBlur
         stdDeviation="0.010538767"
         id="feGaussianBlur1727" />
    </filter>
    <filter
       id="d"
       x="-.02706"
       y="-.02156"
       width="1.054"
       height="1.043"
       color-interpolation-filters="sRGB">
      <feGaussianBlur
         stdDeviation="0.02185297"
         id="feGaussianBlur1730" />
    </filter>
    <filter
       id="c"
       x="-.2338"
       y="-.1144"
       width="1.468"
       height="1.229"
       color-interpolation-filters="sRGB">
      <feGaussianBlur
         stdDeviation="0.062510315"
         id="feGaussianBlur1733" />
    </filter>
    <filter
       id="b"
       x="-.02522"
       y="-.02518"
       width="1.05"
       height="1.05"
       color-interpolation-filters="sRGB">
      <feGaussianBlur
         stdDeviation="0.1755368"
         id="feGaussianBlur1736" />
    </filter>
    <clipPath
       id="j">
      <path
         d="m0 0h326v510.2h-326z"
         id="path1739" />
    </clipPath>
    <filter
       id="i"
       color-interpolation-filters="sRGB">
      <feBlend
         in2="BackgroundImage"
         mode="screen"
         id="feBlend1742" />
    </filter>
    <linearGradient
       inkscape:collect="always"
       xlink:href="#linearGradient4953"
       id="linearGradient4959"
       x1="-337.43839"
       y1="249.01921"
       x2="-465.6326"
       y2="586.11334"
       gradientUnits="userSpaceOnUse"
       gradientTransform="matrix(1,0,0,0.95856557,627.2061,-694.36772)" />
    <linearGradient
       inkscape:collect="always"
       id="linearGradient4953">
      <stop
         style="stop-color:#9e1414;stop-opacity:1"
         offset="0"
         id="stop4949" />
      <stop
         style="stop-color:#fccb8d;stop-opacity:1"
         offset="1"
         id="stop4951" />
    </linearGradient>
    <filter
       inkscape:collect="always"
       style="color-interpolation-filters:sRGB"
       id="filter3082"
       x="-0.080400944"
       width="1.1608019"
       y="-0.080399051"
       height="1.1607981">
      <feGaussianBlur
         inkscape:collect="always"
         stdDeviation="2.7680356"
         id="feGaussianBlur3084" />
    </filter>
    <linearGradient
       inkscape:collect="always"
       xlink:href="#linearGradient1013"
       id="linearGradient1007"
       x1="226.19226"
       y1="-452.35907"
       x2="514.67719"
       y2="-289.57343"
       gradientUnits="userSpaceOnUse" />
    <linearGradient
       inkscape:collect="always"
       xlink:href="#linearGradient1006"
       id="linearGradient910"
       x1="37.431564"
       y1="-41.743652"
       x2="56.815857"
       y2="14.382948"
       gradientUnits="userSpaceOnUse" />
    <filter
       inkscape:collect="always"
       style="color-interpolation-filters:sRGB"
       id="filter1793"
       x="-0.1539561"
       width="1.3079122"
       y="-0.13468774"
       height="1.2693754">
      <feGaussianBlur
         inkscape:collect="always"
         stdDeviation="0.71492198"
         id="feGaussianBlur1795" />
      <feBlend
         inkscape:collect="always"
         mode="overlay"
         in2="BackgroundImage"
         id="feBlend1797" />
    </filter>
    <linearGradient
       inkscape:collect="always"
       xlink:href="#linearGradient942"
       id="linearGradient2452"
       x1="-168.8158"
       y1="187.8298"
       x2="-168.8158"
       y2="126.42162"
       gradientUnits="userSpaceOnUse" />
    <linearGradient
       inkscape:collect="always"
       xlink:href="#linearGradient942"
       id="linearGradient936"
       gradientUnits="userSpaceOnUse"
       x1="-168.8158"
       y1="186.05772"
       x2="-168.8158"
       y2="126.42162" />
    <filter
       inkscape:collect="always"
       style="color-interpolation-filters:sRGB"
       id="filter952"
       x="-0.0072784882"
       width="1.014557"
       y="-0.060175702"
       height="1.1203514">
      <feGaussianBlur
         inkscape:collect="always"
         stdDeviation="1.1002531"
         id="feGaussianBlur954" />
    </filter>
    <filter
       inkscape:collect="always"
       style="color-interpolation-filters:sRGB"
       id="filter960"
       x="-0.0061850134"
       width="1.01237"
       y="-0.051135279"
       height="1.1022706">
      <feGaussianBlur
         inkscape:collect="always"
         stdDeviation="0.93495792"
         id="feGaussianBlur962" />
    </filter>
    <linearGradient
       inkscape:collect="always"
       xlink:href="#linearGradient1059"
       id="linearGradient976"
       gradientUnits="userSpaceOnUse"
       x1="-168.8158"
       y1="186.05772"
       x2="-168.8158"
       y2="131.04312" />
    <linearGradient
       inkscape:collect="always"
       xlink:href="#linearGradient982"
       id="linearGradient936-7"
       gradientUnits="userSpaceOnUse"
       x1="-168.8158"
       y1="186.05772"
       x2="-168.8158"
       y2="126.42162" />
    <filter
       inkscape:collect="always"
       style="color-interpolation-filters:sRGB"
       id="filter960-4"
       x="-0.0061850133"
       width="1.01237"
       y="-0.051135279"
       height="1.1022706">
      <feGaussianBlur
         inkscape:collect="always"
         stdDeviation="0.93495792"
         id="feGaussianBlur962-0" />
    </filter>
    <filter
       style="color-interpolation-filters:sRGB"
       id="g-5">
      <feOffset
         dx="3"
         dy="3"
         id="feOffset1703-8" />
      <feGaussianBlur
         result="blur"
         stdDeviation="3"
         id="feGaussianBlur1705-5" />
      <feFlood
         flood-color="rgb(0,0,0)"
         result="flood"
         id="feFlood1707-5" />
      <feComposite
         in="flood"
         in2="SourceGraphic"
         operator="in"
         result="composite"
         id="feComposite1709-6" />
      <feBlend
         mode="normal"
         in="blur"
         in2="composite"
         id="feBlend1711-3" />
    </filter>
    <filter
       inkscape:collect="always"
       style="color-interpolation-filters:sRGB"
       id="filter1432">
      <feBlend
         inkscape:collect="always"
         mode="color-burn"
         in2="BackgroundImage"
         id="feBlend1434" />
    </filter>
    <filter
       inkscape:collect="always"
       style="color-interpolation-filters:sRGB"
       id="filter1049"
       x="-0.0804"
       width="1.1608"
       y="-0.0804"
       height="1.1608">
      <feGaussianBlur
         inkscape:collect="always"
         stdDeviation="0.10636251"
         id="feGaussianBlur1051" />
    </filter>
    <filter
       style="color-interpolation-filters:sRGB;"
       inkscape:label="Blur"
       id="filter1898">
      <feGaussianBlur
         stdDeviation="3 0.01"
         result="blur"
         id="feGaussianBlur1896" />
    </filter>
  </defs>
  <image
     sodipodi:absref="D:\GOG Games\Settings\KHAN.mod\source\pirate_armada.png"
     xlink:href="pirate_armada.png"
     y="0"
     x="-17.116211"
     id="image1536"
     style="stroke-width:0.19346352;image-rendering:optimizeSpeed"
     preserveAspectRatio="none"
     height="232.83333"
     width="542.2323" />
  <image
     sodipodi:absref="D:\GOG Games\Settings\KHAN.mod\source\khan_throne_room.png"
     xlink:href="khan_throne_room.png"
     y="232.30417"
     x="-95.615341"
     id="image1547"
     style="stroke-width:0.15640807;image-rendering:optimizeSpeed"
     preserveAspectRatio="none"
     height="275.69583"
     width="700.61664" />
  <rect
     transform="matrix(2.0134485,0,0,0.7932092,553.58939,103.30105)"
     style="display:inline;opacity:0.66600001;vector-effect:none;fill:url(#linearGradient976);fill-opacity:1;fill-rule:evenodd;stroke:#fce94f;stroke-width:1.25617337;stroke-linecap:butt;stroke-linejoin:miter;stroke-miterlimit:4;stroke-dasharray:none;stroke-dashoffset:0;stroke-opacity:0.17808222;filter:url(#filter960)"
     id="rect974"
     width="362.79614"
     height="43.881622"
     x="-330.19223"
     y="139.26398" />
  <g
     transform="matrix(0.77241171,0,0,0.84696245,30.275257,172.39103)"
     id="g972"
     style="display:inline;fill:none;stroke-width:1.23635554;filter:url(#filter1898)">
    <path
       transform="matrix(0.80484359,0,0,0.80482757,19.490347,36.605578)"
       style="opacity:0.8;vector-effect:none;fill:none;fill-opacity:0.33333333;fill-rule:evenodd;stroke:#f2d11a;stroke-width:2.43865331;stroke-linecap:butt;stroke-linejoin:miter;stroke-miterlimit:4;stroke-dasharray:none;stroke-dashoffset:0;stroke-opacity:1"
       d="M 99.870392,200.29426 V 187.55507 H 111.01521"
       id="path964"
       inkscape:connector-curvature="0" />
    <use
       transform="matrix(-1,0,0,1,593.64209,-2.5955342e-7)"
       style="fill:none;stroke-width:1.23635554;"
       x="0"
       y="0"
       xlink:href="#path964"
       id="use966"
       width="100%"
       height="100%" />
    <use
       transform="matrix(1,0,0,-1,1.3715836e-8,433.16621)"
       style="fill:none;stroke-width:1.23635554;"
       x="0"
       y="0"
       xlink:href="#path964"
       id="use968"
       width="100%"
       height="100%" />
    <use
       transform="rotate(-180,296.82104,216.58311)"
       style="fill:none;stroke-width:1.23635554;"
       height="100%"
       width="100%"
       id="use970"
       xlink:href="#path964"
       y="0"
       x="0" />
  </g>
  <rect
     transform="matrix(1.478025,0,0,1.1015131,474.12412,301.88349)"
     style="display:inline;opacity:0.66600001;vector-effect:none;fill:url(#linearGradient2452);fill-opacity:1.0;fill-rule:evenodd;stroke:#fce94f;stroke-width:1.24416518;stroke-linecap:butt;stroke-linejoin:miter;stroke-miterlimit:4;stroke-dasharray:none;stroke-dashoffset:0;stroke-opacity:0.17808222;filter:url(#filter952)"
     id="rect2111"
     width="362.79614"
     height="43.881622"
     x="-330.19223"
     y="139.26398" />
  <rect
     transform="matrix(0.70710678,-0.70710678,-0.70710678,-0.70710678,0,0)"
     y="-516.85864"
     x="287.26471"
     height="325.17282"
     width="97.671837"
     id="rect837"
     style="display:inline;opacity:0.5;vector-effect:none;fill:url(#linearGradient4959);fill-opacity:1;fill-rule:evenodd;stroke:#eeeeee;stroke-width:1.32291663;stroke-linecap:round;stroke-linejoin:miter;stroke-miterlimit:4;stroke-dasharray:none;stroke-dashoffset:0;stroke-opacity:0.56338028" />
  <rect
     transform="rotate(45)"
     style="fill:url(#linearGradient1007);fill-opacity:1;stroke:#eeeeee;stroke-width:1.32299995;stroke-linecap:round"
     id="rect1766"
     height="325.29999"
     width="325.29999"
     y="-612.62836"
     x="191.62225" />
  <image
     sodipodi:absref="C:\Users\Max\Pictures\diplomacy_texture3.png"
     y="232.97488"
     x="-95.243683"
     id="image2372"
     xlink:href="file:///C:/Users/Max/Pictures/diplomacy_texture3.png"
     style="stroke-width:0.34344324;image-rendering:optimizeSpeed"
     preserveAspectRatio="none"
     height="275.02512"
     width="698.48737" />
  <image
     sodipodi:absref="D:\GOG Games\Settings\KHAN.mod\source\diplomacy_stripes.png"
     xlink:href="diplomacy_stripes.png"
     y="232.97488"
     x="-95.243652"
     id="image2361"
     style="stroke-width:0.34344324;image-rendering:optimizeSpeed"
     preserveAspectRatio="none"
     height="275.02512"
     width="698.4873" />
  <g
     style="fill:#eeeeee;stroke:#000000;stroke-width:3.20000005"
     id="g1771"
     transform="translate(446.8,57.54)">
    <text
       style="font-weight:bold;font-size:29.36000061px;font-family:Orbitron;letter-spacing:0px;word-spacing:0px;text-anchor:middle"
       word-spacing="0px"
       letter-spacing="0px"
       font-weight="bold"
       font-size="29.36px"
       y="-19"
       x="2.5"
       transform="rotate(45)"
       id="v">
      <tspan
         id="tspan1768">3.0.3</tspan>
    </text>
  </g>
  <use
     style="fill:url(#linearGradient910);stroke:#ffdb11;stroke-width:0.69999999;stroke-opacity:1;filter:url(#e);fill-opacity:1"
     id="use1773"
     xlink:href="#v"
     height="100%"
     width="100%"
     y="-1.2"
     x="0.2"
     transform="translate(446.8,57.54)" />
  <g
     style="fill:#919fa0"
     id="g1791"
     transform="matrix(0.2038,0,0,0.2038,462.49781,414.62261)">
    <path
       inkscape:connector-curvature="0"
       id="path1777"
       d="m 159.9,426.3 h 1.578 v 0.4225 h 0.0138 c 0.2938,-0.3388 0.7425,-0.52 1.466,-0.52 1.056,0 2.028,0.5788 2.028,1.902 0,1.3232 -0.9712,1.904 -2.028,1.904 -0.665,0 -1.135,-0.1625 -1.414,-0.5012 h -0.0137 v 1.636 h -1.63 z m 2.53,2.614 c 0.5862,0 0.8862,-0.3525 0.8862,-0.8088 0,-0.4688 -0.26,-0.8075 -0.8938,-0.8075 -0.625,0 -0.8925,0.3 -0.8925,0.8075 0,0.5012 0.2675,0.8088 0.9,0.8088" />
    <path
       inkscape:connector-curvature="0"
       id="path1779"
       d="m 165.6,427.4 c 0.0975,-0.49 0.3,-0.7888 0.705,-0.9775 0.3975,-0.1825 0.99,-0.2475 1.851,-0.2475 1.662,0 2.321,0.3712 2.321,1.434 v 1.721 c 0,0.2738 0.0712,0.4362 0.1488,0.5538 h -1.669 c -0.0325,-0.105 -0.0525,-0.2212 -0.0588,-0.3525 -0.365,0.34 -0.9188,0.4962 -1.786,0.4962 -1.095,0 -1.786,-0.2938 -1.786,-1.206 0,-0.6512 0.4625,-1.069 1.669,-1.121 l 1.376,-0.0663 c 0.3262,-0.0188 0.4362,-0.0975 0.4362,-0.2925 0,-0.235 -0.2938,-0.345 -0.7562,-0.345 -0.3712,0 -0.7425,0.0575 -0.8212,0.4038 z m 3.246,0.86 c -0.2738,0.06 -0.7362,0.0975 -1.316,0.15 -0.3,0.0263 -0.4438,0.1238 -0.4438,0.3525 0,0.2475 0.2025,0.4038 0.6062,0.4038 0.5475,0 1.154,-0.1362 1.154,-0.7488 z" />
    <path
       inkscape:connector-curvature="0"
       id="path1781"
       d="m 171.4,426.3 h 1.576 v 0.6838 h 0.0137 c 0.4238,-0.5538 0.9588,-0.7812 1.519,-0.7812 0.1762,0 0.3588,0.0125 0.535,0.0375 v 1.461 c -0.2862,-0.0713 -0.5275,-0.13 -0.815,-0.13 -0.58,0 -1.199,0.1888 -1.199,0.9588 v 1.335 h -1.63 z" />
    <path
       inkscape:connector-curvature="0"
       id="path1783"
       d="m 175.6,427.4 c 0.0975,-0.49 0.3,-0.7888 0.705,-0.9775 0.3962,-0.1825 0.99,-0.2475 1.851,-0.2475 1.662,0 2.321,0.3712 2.321,1.434 v 1.721 c 0,0.2738 0.0712,0.4362 0.1488,0.5538 h -1.669 c -0.0325,-0.105 -0.0525,-0.2212 -0.0587,-0.3525 -0.365,0.34 -0.9188,0.4962 -1.786,0.4962 -1.095,0 -1.786,-0.2938 -1.786,-1.206 0,-0.6512 0.4625,-1.069 1.669,-1.121 l 1.376,-0.0663 c 0.3262,-0.0188 0.4362,-0.0975 0.4362,-0.2925 0,-0.235 -0.2925,-0.345 -0.7562,-0.345 -0.3712,0 -0.7425,0.0575 -0.8212,0.4038 z m 3.246,0.86 c -0.2738,0.06 -0.7362,0.0975 -1.316,0.15 -0.3,0.0263 -0.4438,0.1238 -0.4438,0.3525 0,0.2475 0.2025,0.4038 0.6062,0.4038 0.5475,0 1.154,-0.1362 1.154,-0.7488 z" />
    <path
       inkscape:connector-curvature="0"
       id="path1785"
       d="m 184.7,429.5 h -0.0125 c -0.2938,0.3388 -0.7438,0.5212 -1.466,0.5212 -1.058,0 -2.029,-0.58 -2.029,-1.904 0,-1.324 0.9712,-1.904 2.029,-1.904 0.665,0 1.132,0.1625 1.414,0.5025 h 0.0138 v -1.656 h 1.629 v 4.818 h -1.578 z m -0.9512,-2.191 c -0.5875,0 -0.8862,0.3525 -0.8862,0.8088 0,0.47 0.26,0.8088 0.8912,0.8088 0.6275,0 0.895,-0.3 0.895,-0.8088 0,-0.5025 -0.2675,-0.8088 -0.9,-0.8088" />
    <path
       inkscape:connector-curvature="0"
       id="path1787"
       d="m 189.6,426.2 c 1.839,0 2.64,0.6112 2.64,1.922 0,1.318 -0.8012,1.93 -2.64,1.93 -1.8388,0 -2.64,-0.6125 -2.64,-1.93 0,-1.311 0.8012,-1.922 2.64,-1.922 m 0,2.796 c 0.6588,0 0.9325,-0.3 0.9325,-0.8738 0,-0.5612 -0.2738,-0.8675 -0.9325,-0.8675 -0.6512,0 -0.9325,0.3062 -0.9325,0.8675 0,0.5738 0.2812,0.8738 0.9325,0.8738" />
    <path
       inkscape:connector-curvature="0"
       id="path1789"
       d="m 192.4,429.9 1.642,-1.864 -1.506,-1.701 h 1.995 l 0.6462,0.9575 0.645,-0.9575 h 1.994 l -1.53,1.701 1.668,1.864 h -2.072 l -0.7038,-1.01 -0.705,1.01 z" />
  </g>
  <g
     style="fill:#919fa0"
     id="g1799"
     transform="matrix(0.2548,0,0,-0.2548,422.85781,505.92261)">
    <g
       style="fill:#919fa0"
       id="g1797"
       clip-path="url(#j)">
      <g
         style="fill:#919fa0"
         id="g1795"
         transform="translate(310.3,31.39)">
        <path
           style="fill:#919fa0"
           inkscape:connector-curvature="0"
           id="path1793"
           d="m 0,0 c -0.155,0.757 0.632,1.412 0.26,2.186 -0.369,0.762 -2.17,0.726 -2.197,1.603 -0.037,1.025 1.454,0.502 2.079,0.483 0,1.642 -0.646,3.045 -2.413,1.936 -0.297,0 -0.7,0.06 -0.841,0.324 -0.529,0.971 1.087,1.179 1.131,1.963 0.025,0.454 -0.53,0.742 -0.703,1.111 -0.118,0.246 -0.014,0.56 -0.014,0.822 0,0.11 -0.127,0.114 -0.213,0.136 -0.334,0.086 -0.643,-0.106 -0.987,-0.032 -0.38,0.082 -0.589,0.429 -0.927,0.587 0,-0.14 -0.243,-0.323 -0.322,-0.437 -0.25,-0.345 -1.145,-1.569 -1.69,-1.038 -0.213,0.208 -0.179,0.576 -0.136,0.857 0.315,2.119 -0.459,2.349 -2.321,2.645 -0.452,0.076 -1.577,0.34 -1.99,0.187 h -0.142 c 0,-0.364 0.46,-2.9 -0.355,-2.767 -0.969,0 -0.44,2.518 -1.845,2.836 -0.232,-0.085 -0.537,-0.12 -0.687,-0.341 -0.2,-0.291 0.197,-1.176 0.284,-1.52 0.106,-0.433 0.084,-1.012 -0.094,-1.39 v -0.069 c -1.59,0 -1.428,3.524 -3.902,1.798 0,-0.943 2.245,-2.136 1.474,-3.171 -0.132,-0.172 -0.351,-0.319 -0.568,-0.348 -1.205,-0.145 -1.681,2.454 -3.027,2.224 -0.22,-0.038 -0.416,-0.211 -0.509,-0.398 -0.317,-0.614 1.173,-1.508 1.388,-2.119 0.119,-0.333 0.014,-0.639 -0.037,-0.961 -1.133,0 -2.465,1.626 -3.52,0.595 -0.167,-0.16 -0.348,-0.383 -0.283,-0.631 0.108,-0.431 0.875,-0.358 1.108,-0.763 0.01,-0.017 0.017,-0.033 0.026,-0.051 0.399,-0.907 -0.52,-1.578 -0.532,-2.401 -0.01,-0.41 0.309,-0.642 0.178,-1.093 -0.451,-1.537 -1.91,0.177 -2.605,-0.48 -0.625,-0.589 0.086,-1.815 0.133,-2.508 0.029,-0.454 -0.217,-0.795 -0.246,-1.239 -0.028,-0.403 0.262,-0.706 0.362,-1.064 0.134,-0.491 -0.007,-1.034 0.265,-1.459 0.784,-1.214 2.121,2.087 2.715,0.696 0.481,-1.126 -1.952,-1.064 -2.011,-1.918 -0.062,-0.848 1.417,-1.612 1.98,-2.161 0.493,-0.481 0.884,-1.097 0.95,-1.787 0.063,-0.69 -0.26,-1.391 -0.436,-1.997 0.25,0 0.433,-0.108 0.696,-0.032 1.234,0.365 1.959,2.337 1.756,3.556 -0.174,1.027 -0.735,1.906 -0.804,2.98 -0.069,1.056 0.962,2.83 -0.025,3.586 -0.044,0.026 -0.088,0.053 -0.133,0.078 0,-0.11 -0.235,-0.147 -0.356,-0.151 -0.216,-0.007 -0.388,0.077 -0.534,0.192 -0.213,0.167 -0.338,0.424 -0.167,0.672 0.238,0.347 0.91,0.28 0.991,0.75 0.171,1.04 -2.007,1.244 -0.689,2.526 0.244,0.24 0.586,0.428 0.964,0.397 0.611,-0.047 2.083,-0.483 2,-1.266 -0.039,-0.355 -0.338,-0.688 -0.209,-1.086 0.132,-0.412 0.737,-0.365 0.896,-0.754 0.216,-0.527 -0.223,-0.918 -0.181,-1.409 0.01,-0.124 0.065,-0.168 0.158,-0.242 0.186,-0.145 0.544,-0.194 0.652,-0.435 0.275,-0.611 -0.464,-1.354 0.522,-1.684 0,0.434 -0.099,1.02 0.283,1.245 0,-0.104 0.211,-0.249 0.274,-0.35 0.311,-0.486 0.441,-0.942 1.074,-1.103 0,0.586 -0.177,1.225 -0.497,1.661 v 0.07 c 0.454,0 0.733,-0.6 1.248,-0.463 0.47,0.127 0.053,0.65 -0.057,0.871 -0.312,0.627 0.137,1.136 -0.053,1.716 -0.202,0.613 -1.843,1.048 -2.348,1.542 -0.17,0.163 -0.349,0.433 -0.265,0.689 0.309,0.962 1.444,0.388 2.236,0.615 0.371,0.109 0.652,0.366 0.916,0.656 0.363,0.404 0.619,1.063 0.391,1.613 -0.135,0.327 -0.373,0.574 -0.315,0.984 0.239,1.729 3.038,1.633 4.258,1.005 0.623,-0.319 1.214,-1.052 0.884,-1.8 -0.292,-0.656 -1.083,-0.274 -1.64,-0.518 -0.492,-0.212 -1.137,-1.204 -1.301,-1.672 -0.248,-0.704 0.446,-1.236 0.493,-1.919 0.096,-1.495 -0.607,-2.868 -0.905,-4.217 -0.056,-0.247 0.163,-0.581 0.031,-0.808 -0.215,-0.364 -0.663,-0.229 -1.022,-0.363 -0.278,-0.104 -0.404,-0.32 -0.647,-0.473 -0.522,-0.322 -1.125,-0.478 -1.193,-1.194 0.329,0 0.571,0.177 0.921,0.209 v -0.07 h 0.071 c -10e-4,-0.025 -0.006,-0.046 -0.008,-0.068 -0.082,-0.622 -0.572,-1.149 -0.274,-1.799 0.439,0 0.544,1.027 1.277,0.76 0.086,0 0.075,-0.005 0.097,-0.079 0.15,-0.479 0.211,-0.89 0.47,-1.305 h 0.213 v 0.07 c 0.117,0 0.071,0.177 0.071,0.276 0,0.441 -0.083,1.009 0.067,1.385 0.215,0.559 0.601,0.487 0.5,1.243 0.113,0 0.247,0.195 0.371,0.236 0.896,0.314 1.045,0.834 2.182,0.796 0.275,-0.007 0.553,-0.02 0.783,-0.133 h 0.071 v 0.07 c 0.139,0 0.013,0.376 -0.018,0.48 -0.399,1.322 -0.905,2.63 -0.905,4.154 h 0.214 c 0,-0.171 0.675,-1.086 0.804,-1.299 0.169,-0.269 0.717,-1.527 1.202,-1.252 0.226,0.132 0.362,1.711 0.494,2.06 0.481,1.295 1.84,1.58 2.638,0.327 0.756,-1.184 0.29,-3.684 -0.678,-4.601 -0.381,-0.353 -0.919,-0.354 -1.283,-0.688 -0.381,-0.346 -0.04,-0.999 -0.102,-1.456 -0.059,-0.422 -0.341,-0.821 -0.652,-1.125 -0.696,-0.676 -1.617,-0.98 -2.326,-1.611 -0.303,-0.265 -0.368,-0.705 -0.737,-0.868 -0.362,-0.156 -0.807,0.043 -1.184,-0.068 -0.274,-0.172 -0.551,-0.345 -0.829,-0.518 -0.511,-0.266 -1.022,-0.532 -1.534,-0.798 h -0.072 c 0,-1.084 2.594,-0.507 3.128,-0.218 0.379,0.205 0.491,0.703 0.868,0.865 0.399,0.174 0.749,-0.234 1.18,-0.087 0.4,0.145 0.774,0.467 1.127,0.702 0.681,0.463 1.413,0.851 2.047,1.394 0.214,0.188 0.553,0.445 0.644,0.701 0.19,0.527 -0.451,1.072 0.233,1.416 0,0.115 0.382,0.002 0.492,-0.014 0.997,-0.133 1.988,1.87 2.179,2.58 0.111,0.547 0.22,1.099 0.33,1.649 0.139,0.329 0.272,0.66 0.412,0.993 C 0.847,-0.565 0.119,-0.592 0,0 m -22.57,-2.097 c -0.799,-0.167 -1.357,0.749 -0.998,1.393 0.15,0.274 0.383,0.397 0.644,0.549 0.313,-0.028 0.585,-0.057 0.815,-0.247 0.666,-0.553 0.342,-1.524 -0.461,-1.695 m 5.323,5.815 c 0,-0.124 -0.209,0.03 -0.289,0.063 -1.013,0.43 -0.594,1.085 -0.207,1.804 0.602,-0.24 1.084,-1.355 0.496,-1.867 m 1.418,-2.974 c 0.573,-0.28 1.29,-0.951 1.229,-1.656 -0.029,-0.079 -0.06,-0.16 -0.088,-0.24 -0.15,-0.075 -0.366,-0.031 -0.506,0.022 -0.757,0.292 -0.635,1.106 -0.635,1.874 m 7.465,-3.312 c -0.039,-0.324 -0.158,-0.467 -0.368,-0.7 -0.363,0 -0.7,0.175 -0.808,0.499 -0.1,0.292 -0.009,0.66 0.017,0.955 0.082,1.046 0.161,2.237 0.508,3.18 0.347,-0.771 0.226,-1.675 0.397,-2.549 0.087,-0.444 0.312,-0.881 0.254,-1.385 m 5.096,4.557 c -0.477,0 -0.941,-0.057 -1.412,0.037 -1.776,0.352 -0.245,2.345 0.135,3.145 0.723,-0.657 1.527,-2.14 1.277,-3.182" />
      </g>
    </g>
  </g>
  <g
     style="display:inline;fill:none;stroke-width:1.02741683;filter:url(#filter1351)"
     id="g2123"
     transform="matrix(1.2375631,0,0,0.76548942,-113.33477,312.27541)">
    <path
       inkscape:connector-curvature="0"
       id="path2115"
       d="M 99.870392,200.29426 V 187.55507 H 111.01521"
       style="opacity:0.8;vector-effect:none;fill:none;fill-opacity:0.33333333;fill-rule:evenodd;stroke:#f2d11a;stroke-width:1.6887759;stroke-linecap:butt;stroke-linejoin:miter;stroke-miterlimit:4;stroke-dasharray:none;stroke-dashoffset:0;stroke-opacity:1;filter:url(#filter1793)"
       transform="matrix(0.80484359,0,0,0.80482757,19.490347,36.605578)" />
    <use
       height="100%"
       width="100%"
       id="use2117"
       xlink:href="#path2115"
       y="0"
       x="0"
       style="fill:none;stroke-width:1.02741683"
       transform="matrix(-1,0,0,1,593.64209,-2.5955342e-7)" />
    <use
       height="100%"
       width="100%"
       id="use2119"
       xlink:href="#path2115"
       y="0"
       x="0"
       style="fill:none;stroke-width:1.02741683"
       transform="matrix(1,0,0,-1,1.3715836e-8,433.16621)" />
    <use
       x="0"
       y="0"
       xlink:href="#path2115"
       id="use2121"
       width="100%"
       height="100%"
       style="fill:none;stroke-width:1.02741683"
       transform="rotate(-180,296.82104,216.58311)" />
  </g>
  <g
     id="g930">
    <path
       style="display:inline;opacity:0.8;vector-effect:none;fill:none;fill-opacity:1;fill-rule:evenodd;stroke:#fce94f;stroke-width:10.06873308;stroke-linecap:round;stroke-linejoin:miter;stroke-miterlimit:4;stroke-dasharray:none;stroke-dashoffset:0;stroke-opacity:1;filter:url(#filter3082)"
       d="m 43.527344,1797.8438 v 82.6289 m 0,0 H 126.1543"
       id="path2157"
       transform="matrix(-0.31270485,0,0,0.31270485,519.53382,-82.11032)"
       inkscape:connector-curvature="0"
       sodipodi:nodetypes="cccc" />
    <rect
       y="504.03137"
       x="504.03125"
       height="3.1750002"
       width="3.1750002"
       id="rect911"
       style="opacity:0.8;vector-effect:none;fill:#fce94f;fill-opacity:1;fill-rule:evenodd;stroke:none;stroke-width:1.27476251;stroke-linecap:butt;stroke-linejoin:miter;stroke-miterlimit:4;stroke-dasharray:none;stroke-dashoffset:0;stroke-opacity:0.17808222;filter:url(#filter1049)" />
  </g>
  <use
     x="0"
     y="0"
     xlink:href="#g930"
     id="use932"
     transform="rotate(-180,254,254)"
     width="100%"
     height="100%" />
  <g
     inkscape:groupmode="layer"
     id="layer1"
     inkscape:label="Layer 1"
     style="display:inline;filter:url(#filter1432)"
     sodipodi:insensitive="true">
    <rect
       y="139.26398"
       x="-330.19223"
       height="43.881622"
       width="362.79614"
       id="rect934"
       style="display:inline;opacity:0.66600001;vector-effect:none;fill:url(#linearGradient936-7);fill-opacity:1;fill-rule:evenodd;stroke:#fce94f;stroke-width:1.07868814;stroke-linecap:butt;stroke-linejoin:miter;stroke-miterlimit:4;stroke-dasharray:none;stroke-dashoffset:0;stroke-opacity:0.17808222;filter:url(#filter960-4)"
       transform="matrix(2.0134485,0,0,1.0757098,553.58939,182.41922)" />
  </g>
  <g
     inkscape:groupmode="layer"
     id="layer2"
     inkscape:label="text"
     style="display:inline">
    <g
       style="font-size:56px;font-family:'Nostromo 3D';letter-spacing:10.48999977px;text-anchor:middle"
       transform="matrix(1.3,0,0,0.79999999,450,57.999992)"
       font-size="56px"
       letter-spacing="10.49px"
       id="g1764">
      <g
         transform="translate(0,1)"
         id="g1751"
         style="fill:#11ff8c;stroke:#ffdb11;stroke-width:2.0999999;stroke-opacity:1;filter:url(#g-5)">
        <use
           y="0"
           x="0"
           width="100%"
           height="100%"
           xlink:href="#text"
           id="use1749"
           style="stroke:#ffdb11;stroke-opacity:1" />
      </g>
      <g
         style="fill:none;stroke:#000000;stroke-width:1.25"
         transform="translate(0.25,0.5)"
         id="g1760">
        <text
           style="word-spacing:-18px"
           id="text"
           x="-150"
           y="230"
           word-spacing="-18px"
           sodipodi:role="line"><tspan
   style="font-weight:900;font-size:110.00000238%"
   id="tspan925">T</tspan>
he <tspan
   style="font-weight:900;font-size:110.00000238%"
   id="tspan1586">G</tspan>
reat<tspan
   style="font-size:70px;letter-spacing:14.5px"
   x="-140"
   y="390"
   font-size="70px"
   letter-spacing="14.5px"
   id="tspan1757"><tspan
   style="font-weight:900;font-size:110.00000238%"
   id="tspan927">K</tspan>
han</tspan>
<tspan
   style="letter-spacing:10px"
   x="-152"
   y="542"
   letter-spacing="10px"
   id="tspan1656"><tspan
   style="font-weight:900;font-size:110.00000238%"
   id="tspan1654">E</tspan>
xpanded</tspan>
</text>
      </g>
      <use
         y="0"
         x="0"
         width="100%"
         height="100%"
         xlink:href="#text"
         id="use1762"
         style="fill:#ffdb11;fill-opacity:1;stroke:#eeeeee;stroke-width:0.80000001" />
    </g>
  </g>
</svg>
